<?xml version="1.0" encoding="UTF-8"?>
<svg width="132px" height="43px" viewBox="0 0 132 43" version="1.1" xmlns="http://www.w3.org/2000/svg" xmlns:xlink="http://www.w3.org/1999/xlink">
    <!-- Generator: Sketch 52.5 (67469) - http://www.bohemiancoding.com/sketch -->
    <title>健康阿鹿</title>
    <desc>健康阿鹿LOGO</desc>
    <defs>
        <rect id="path-1" x="0" y="0" width="1920" height="60"></rect>
        <filter x="-0.5%" y="-12.5%" width="101.1%" height="135.0%" filterUnits="objectBoundingBox" id="filter-2">
            <feOffset dx="0" dy="3" in="SourceAlpha" result="shadowOffsetOuter1"></feOffset>
            <feGaussianBlur stdDeviation="3" in="shadowOffsetOuter1" result="shadowBlurOuter1"></feGaussianBlur>
            <feColorMatrix values="0 0 0 0 0.129411765   0 0 0 0 0.305882353   0 0 0 0 0.741176471  0 0 0 0.08 0" type="matrix" in="shadowBlurOuter1"></feColorMatrix>
        </filter>
        <polygon id="path-3" points="0.23397086 0.18862093 17.8485652 0.18862093 17.8485652 16.6820916 0.23397086 16.6820916"></polygon>
    </defs>
    <g id="页面-1" stroke="none" stroke-width="1" fill="none" fill-rule="evenodd">
        <g id="我的工作台" transform="translate(-10.000000, -9.000000)">
            <rect fill="#FFFFFF" x="0" y="0" width="1920" height="938"></rect>
            <rect id="Rectangle-12" fill="#E9EBEF" x="0" y="0" width="1920" height="1080"></rect>
            <g id="Rectangle">
                <use fill="black" fill-opacity="1" filter="url(#filter-2)" xlink:href="#path-1"></use>
                <use fill="#FFFFFF" fill-rule="evenodd" xlink:href="#path-1"></use>
            </g>
            <g id="Group-2" transform="translate(10.000000, 9.000000)">
                <path d="M52.3601089,26.7503082 L52.3601089,12.4017102 C52.3601089,12.3851743 52.3553912,12.3707054 52.3528751,12.3549963 C52.5617139,11.8564395 52.7674075,11.3153027 52.9828511,10.689833 C53.0265689,10.5637469 52.9837947,10.4116168 52.8875527,10.3549814 L52.3163912,10.0209566 C52.2210928,9.96514799 52.1088105,10.0250906 52.0657217,10.1499365 C51.4310279,11.9887265 50.8979229,13.0958038 50.049987,14.3326878 C49.9804789,14.43397 49.9833096,14.5910609 50.0594225,14.6836619 L50.5186162,15.2417479 C50.5963018,15.3360024 50.7199066,15.3281479 50.7906728,15.2247986 C50.9947939,14.9275661 51.1800439,14.6377748 51.3552295,14.3455031 L51.3552295,26.7503082 C51.3552295,26.8879694 51.4401489,27 51.5448828,27 L52.1701411,27 C52.2751896,27 52.3601089,26.8879694 52.3601089,26.7503082" id="Fill-1" fill="#4896E9"></path>
                <path d="M53.9245768,18.1234318 L54.9767616,18.1234318 C54.8904301,19.2826287 54.5313907,21.9175101 53.0428734,24.1446167 C52.9786702,24.2404306 52.9870852,24.3803792 53.06469,24.4599726 L53.5368642,24.9454547 C53.6175857,25.0284431 53.7413172,25.0152404 53.8080137,24.9160316 C56.0018314,21.6466662 56.0008964,17.6858566 55.9999614,17.5157304 C55.9974681,17.1849085 55.7752501,16.918214 55.501919,16.918214 L54.4310342,16.918214 C54.8452385,15.7235584 55.9603798,12.5360498 55.9603798,12.5360498 C55.9865598,12.4617374 55.9999614,12.3817668 55.9999614,12.3006645 L55.9999614,10.6024203 C55.9999614,10.2697123 55.7771201,10 55.501919,10 L53.7223055,10 C53.618209,10 53.5340592,10.1018494 53.5340592,10.2274636 L53.5340592,10.9773769 C53.5340592,11.1033684 53.618209,11.2052178 53.7223055,11.2052178 L55.0041882,11.2052178 L55.0041882,12.1791997 C55.0041882,12.1791997 53.9033835,15.3248369 53.466116,16.5862605 C53.4405594,16.6598184 53.4265344,16.7416751 53.4265344,16.8212685 L53.4265344,17.5202571 C53.4265344,17.6801983 53.4788943,17.8337269 53.5723941,17.9468928 C53.665894,18.0600588 53.7924304,18.1234318 53.9245768,18.1234318" id="Fill-3" fill="#4896E9"></path>
                <path d="M67.7563403,23.661742 L59.6365029,23.661742 C58.5178468,23.661742 57.5496627,23.4489611 56.7553483,23.0288444 C56.6387628,22.967272 56.4983761,23.0066448 56.4334271,23.1243445 L56.0332443,23.8456216 C55.9642612,23.970023 56.0058125,24.1333785 56.1284491,24.1991395 C57.1143833,24.730673 58.292744,25 59.6365029,25 L67.7563403,25 C67.8906759,25 68,24.8869078 68,24.7474274 L68,23.9147335 C68,23.7748342 67.8906759,23.661742 67.7563403,23.661742" id="Fill-5" fill="#4896E9"></path>
                <path d="M62.370246,14.9901372 L65.2212393,14.9901372 L65.2212393,15.9825335 C65.2212393,16.2255221 65.0194305,16.4222271 64.7706252,16.4222271 L62.370246,16.4222271 L62.370246,14.9901372 Z M62.370246,13.7574522 L65.2212393,13.7574522 L65.2212393,12.3253623 L62.370246,12.3253623 L62.370246,13.7574522 Z M57.2381423,22.9347071 L61.0618459,22.9347071 L61.0618459,24 L62.370246,24 L62.370246,22.9347071 L66.3882548,22.9347071 C66.5197662,22.9347071 66.626792,22.8305692 66.626792,22.7017467 L66.626792,21.9353683 C66.626792,21.8065458 66.5197662,21.7024078 66.3882548,21.7024078 L62.370246,21.7024078 L62.370246,20.319687 L66.2930769,20.319687 C66.4245883,20.319687 66.5316141,20.2151634 66.5316141,20.0867265 L66.5316141,19.3199625 C66.5316141,19.1915257 66.4245883,19.087002 66.2930769,19.087002 L62.370246,19.087002 L62.370246,17.6549121 L64.7706252,17.6549121 C65.7164804,17.6549121 66.4834327,16.9062758 66.4834327,15.9825335 L66.4834327,14.9901372 L66.7614628,14.9901372 C66.8933691,14.9901372 67,14.8859992 67,14.7571767 L67,13.9904127 C67,13.8619759 66.8933691,13.7578379 66.7614628,13.7578379 L66.4834327,13.7578379 L66.4834327,11.7094055 L66.4834327,10.9561408 C66.4834327,10.8273183 66.3764069,10.7231803 66.2448955,10.7231803 L65.4597765,10.7231803 C65.3278701,10.7231803 65.2212393,10.8273183 65.2212393,10.9561408 L65.2212393,11.093063 L62.370246,11.093063 L62.370246,10.2329605 C62.370246,10.1045237 62.2636152,10 62.1317089,10 L61.3003831,10 C61.1684768,10 61.0618459,10.1045237 61.0618459,10.2329605 L61.0618459,11.093063 L57.0213262,11.093063 L57.0213262,12.3253623 L61.0618459,12.3253623 L61.0618459,16.4222271 L57.2598634,16.4222271 C57.128352,16.4222271 57.0213262,16.5267508 57.0213262,16.6551876 L57.0213262,17.4219516 C57.0213262,17.5503885 57.128352,17.6549121 57.2598634,17.6549121 L61.0618459,17.6549121 L61.0618459,19.087002 L57.2815845,19.087002 C57.1496781,19.087002 57.0430473,19.1915257 57.0430473,19.3199625 L57.0430473,20.0867265 C57.0430473,20.2151634 57.1496781,20.319687 57.2815845,20.319687 L61.0618459,20.319687 L61.0618459,21.7024078 L57.2381423,21.7024078 C57.1066309,21.7024078 57,21.8065458 57,21.9353683 L57,22.7017467 C57,22.8305692 57.1066309,22.9347071 57.2381423,22.9347071 Z" id="Fill-7" fill="#4896E9"></path>
                <path d="M57.2214347,14 L60,14 L60,13 L57.2214347,13 C57.0993523,13 57,13.084507 57,13.1887324 L57,13.8109546 C57,13.915493 57.0993523,14 57.2214347,14" id="Fill-9" fill="#4896E9"></path>
                <path d="M107,20.7138705 L107,12.6689004 C107,12.2995317 106.667712,12 106.257949,12 L100.742051,12 C100.332288,12 100,12.2995317 100,12.6689004 L100,20.078072 L100,20.7138705 L100,21.75658 C100,21.891006 100.121361,22 100.270488,22 L101.213614,22 C101.362741,22 101.483654,21.891006 101.483654,21.75658 L101.483654,20.7138705 L101.483654,20.078072 L101.483654,13.3378007 L105.516346,13.3378007 L105.516346,20.0449701 L102.664129,20.0449701 C102.514554,20.0449701 102.393641,20.1543678 102.393641,20.2887938 L102.393641,21.1389472 C102.393641,21.2733732 102.514554,21.3827709 102.664129,21.3827709 L106.257949,21.3827709 C106.667712,21.3827709 107,21.0832391 107,20.7138705" id="Fill-11" fill="#4896E9"></path>
                <path d="M96.0321122,16.6902719 C95.9430122,16.8889888 95.9624604,17.1162118 96.0823157,17.3008822 C96.0949796,17.3202994 97.281773,19.1810494 97.4445952,22.2039418 L95.7114428,22.2039418 C95.5608322,22.2039418 95.4382632,22.3159008 95.4382632,22.453474 L95.4382632,23.3235316 C95.4382632,23.4611048 95.5608322,23.5730637 95.7114428,23.5730637 L98.2121212,23.5730637 C98.627318,23.5730637 98.9615559,23.2607354 98.9611036,22.8814795 C98.9597467,19.8007485 97.9678878,17.6681572 97.5490728,16.9046878 C97.9294437,15.9850543 98.9995477,13.1769909 99,10.6849741 C99,10.3069576 98.6648575,10 98.2505654,10 L93.7494346,10 C93.3355948,10 93,10.3061314 93,10.6841479 L93,26.7504678 C93,26.8884542 93.1221167,27 93.2731796,27 L94.2256897,27 C94.3763003,27 94.498417,26.8884542 94.498417,26.7504678 L94.498417,11.3687088 L97.4726368,11.3687088 C97.2686567,13.9024521 96.0456807,16.6601132 96.0321122,16.6902719" id="Fill-13" fill="#4896E9"></path>
                <path d="M110.75117,10 L100.24883,10 C100.111232,10 100,10.0814971 100,10.1823121 L100,10.8176879 C100,10.9185029 100.111232,11 100.24883,11 L110.75117,11 C110.888356,11 111,10.9185029 111,10.8176879 L111,10.1823121 C111,10.0814971 110.888356,10 110.75117,10" id="Fill-15" fill="#4896E9"></path>
                <path d="M104,23.9990621 L104,24.7771999 C104,24.9002387 104.127358,25 104.284906,25 L107.375472,25 C108.825,25 110,24.0796101 110,22.9441792 L110,12 L108.437264,12 L108.437264,22.9441792 C108.437264,23.4034504 107.961792,23.7758925 107.375472,23.7758925 L104.284906,23.7758925 C104.127358,23.7758925 104,23.8760232 104,23.9990621" id="Fill-17" fill="#4896E9"></path>
                <path d="M127.061599,15.5585907 L129.738006,15.5585907 L129.738006,16.5308789 L129.738006,17.1369755 C129.738006,17.4671417 129.471076,17.7347585 129.141757,17.7347585 L127.061599,17.7347585 L127.061599,15.5585907 Z M129.142152,19 C130.168016,19 131,18.1658749 131,17.1369755 L131,16.5308789 L131,14.9259699 L131,13.6702296 C131,13.5380048 130.892991,13.4311164 130.7615,13.4311164 L129.976505,13.4311164 C129.845015,13.4311164 129.738006,13.5380048 129.738006,13.6702296 L129.738006,14.2937451 L127.061599,14.2937451 L127.061599,13.2391132 C127.061599,13.1068884 126.954985,13 126.8231,13 L126.038105,13 C125.906614,13 125.8,13.1068884 125.8,13.2391132 L125.8,17.7347585 L121.48924,17.7347585 L121.48924,15.5585907 L125.157552,15.5585907 L125.157552,14.2937451 L121.48924,14.2937451 L121.48924,13.2391132 C121.48924,13.1068884 121.382626,13 121.25074,13 L120.46614,13 C120.334255,13 120.227641,13.1068884 120.227641,13.2391132 L120.227641,17.7347585 L117.2385,17.7347585 C117.106614,17.7347585 117,17.8420428 117,17.9738717 L117,18.7608868 C117,18.8927158 117.106614,19 117.2385,19 L129.142152,19 Z" id="Fill-19" fill="#4896E9"></path>
                <path d="M118.184512,15 L120,15 L120,14 L118.184512,14 C118.082786,14 118,14.084507 118,14.1887324 L118,14.8109546 C118,14.915493 118.082786,15 118.184512,15" id="Fill-21" fill="#4896E9"></path>
                <path d="M131.748603,24.757615 L126.886729,24.757615 C126.579141,24.757615 126.329825,24.5246922 126.329825,24.2377187 L126.329825,22.5345431 L131.360685,22.5345431 C131.499286,22.5345431 131.612082,22.429164 131.612082,22.299676 L131.612082,21.5266364 C131.612082,21.3971484 131.499286,21.2917693 131.360685,21.2917693 L126.329825,21.2917693 L126.329825,20.2348671 C126.329825,20.1053791 126.217446,20 126.078428,20 L125.251397,20 C125.11238,20 125,20.1053791 125,20.2348671 L125,24.2377187 C125,25.2110175 125.844512,26 126.886312,26 L131.748603,26 C131.887204,26 132,25.8950097 132,25.7655217 L132,24.9924822 C132,24.8626053 131.887204,24.757615 131.748603,24.757615" id="Fill-23" fill="#4896E9"></path>
                <path d="M124.737212,26 C124.882093,26 125,25.8950097 125,25.7651329 L125,24.9920933 C125,24.8626053 124.882093,24.757615 124.737212,24.757615 L119.972217,24.757615 C119.650693,24.757615 119.39008,24.5246922 119.39008,24.2373299 L119.39008,22.5341542 L124.359562,22.5341542 C124.504444,22.5341542 124.622351,22.429164 124.622351,22.2992871 L124.622351,21.5266364 C124.622351,21.3967596 124.504444,21.2917693 124.359562,21.2917693 L119.39008,21.2917693 L119.39008,20.2348671 C119.39008,20.1049903 119.272609,20 119.127292,20 L118.262788,20 C118.117472,20 118,20.1049903 118,20.2348671 L118,24.2373299 C118,25.2110175 118.882777,26 119.971782,26 L124.737212,26 Z" id="Fill-25" fill="#4896E9"></path>
                <g id="Group-29" transform="translate(114.000000, 10.000000)">
                    <mask id="mask-4" fill="white">
                        <use xlink:href="#path-3"></use>
                    </mask>
                    <g id="Clip-28"></g>
                    <path d="M17.6122957,1.08329535 L10.7128174,1.08329535 L10.7128174,0.427411628 C10.7128174,0.295760465 10.6067739,0.18862093 10.4764696,0.18862093 L9.65238261,0.18862093 C9.52207826,0.18862093 9.41603478,0.295760465 9.41603478,0.427411628 L9.41603478,1.08329535 L1.78051304,1.08329535 C1.4349913,1.08329535 1.1552087,1.36596977 1.1552087,1.71506279 L1.1552087,10.0482256 C1.1552087,12.4444349 1.01707826,13.9890628 0.24933913,16.0749233 C0.203947826,16.1974814 0.262252174,16.3358535 0.382773913,16.3829 L1.10825217,16.6663651 C1.23112174,16.7142023 1.3719913,16.6489698 1.41777391,16.5240395 C2.25007826,14.2654116 2.40542609,12.548807 2.40542609,10.0482256 L2.40542609,2.34643488 L17.6122957,2.34643488 C17.7426,2.34643488 17.8486435,2.2396907 17.8486435,2.10803953 L17.8486435,1.32208605 C17.8486435,1.19003953 17.7426,1.08329535 17.6122957,1.08329535" id="Fill-27" fill="#4896E9" mask="url(#mask-4)"></path>
                </g>
                <path d="M82.3413747,15.1969658 L87.2554088,15.1969658 L87.2554088,14.0620984 L82.3413747,14.0620984 L82.3413747,15.1969658 Z M87.2554088,17.1905126 C87.2554088,17.4785882 87.029485,17.7123772 86.750718,17.7123772 L82.3413747,17.7123772 L82.3413747,16.4629928 L87.2554088,16.4629928 L87.2554088,17.1905126 Z M88.7687153,15.1969658 L88.4788436,15.1969658 L88.4788436,13.5291387 L88.4788436,13.385299 L88.4788436,12.6256828 C88.4788436,12.4933345 88.3754547,12.3863463 88.2475589,12.3863463 L87.4866935,12.3863463 C87.3587976,12.3863463 87.2554088,12.4933345 87.2554088,12.6256828 L87.2554088,12.7956752 L82.3413747,12.7956752 L82.3413747,12.2393366 C82.3413747,12.1073844 82.2376029,12 82.11009,12 L81.3262493,12 C81.1987364,12 81.0949646,12.1073844 81.0949646,12.2393366 L81.0949646,12.7956752 L75.2312847,12.7956752 C75.1033889,12.7956752 75,12.9030596 75,13.0350117 L75,13.8227619 C75,13.954714 75.1033889,14.0620984 75.2312847,14.0620984 L81.0949646,14.0620984 L81.0949646,17.7123772 L75.2312847,17.7123772 C75.1033889,17.7123772 75,17.8197617 75,17.9517138 L75,18.7394639 C75,18.871416 75.1033889,18.9788005 75.2312847,18.9788005 L81.0949646,18.9788005 L81.0949646,23.806742 C81.0949646,24.3060202 80.7040015,24.7105941 80.2219031,24.7105941 L79.8160061,24.7105941 C79.6884932,24.7105941 79.5847214,24.8175823 79.5847214,24.9499307 L79.5847214,25.7606634 C79.5847214,25.8930118 79.6884932,26 79.8160061,26 L80.2219031,26 C81.3924947,26 82.3413747,25.0180861 82.3413747,23.806742 L82.3413747,18.9788005 L86.750718,18.9788005 C87.7053418,18.9788005 88.4788436,18.177974 88.4788436,17.1905126 L88.4788436,16.4629928 L88.7687153,16.4629928 C88.8962282,16.4629928 89,16.3560046 89,16.2236563 L89,15.4359061 C89,15.303954 88.8962282,15.1969658 88.7687153,15.1969658 Z" id="Fill-30" fill="#4896E9"></path>
                <path d="M75.2612833,16 L81,16 L81,15 L75.2612833,15 C75.1172314,15 75,15.084507 75,15.1887324 L75,15.8109546 C75,15.915493 75.1172314,16 75.2612833,16" id="Fill-32" fill="#4896E9"></path>
                <path d="M88.7584819,9.86674147 L81.7956435,9.86674147 L81.7956435,9.24612687 C81.7956435,9.11043109 81.6872802,9 81.5541254,9 L80.712011,9 C80.5788562,9 80.4704929,9.11043109 80.4704929,9.24612687 L80.4704929,9.86674147 L72.580369,9.86674147 C72.2272887,9.86674147 71.9413857,10.1581003 71.9413857,10.5179182 L71.9413857,19.1625131 C71.9413857,21.6323392 71.8002336,23.2244214 71.0156996,25.374364 C70.9693154,25.5006874 71.0288952,25.6433106 71.1524533,25.6918025 L71.893402,25.9835688 C72.0189594,26.0332831 72.1625107,25.9660465 72.2096947,25.8376856 C73.0602062,23.5092603 73.2189524,21.7399178 73.2189524,19.1625131 L73.2189524,11.1686874 L88.7584819,11.1686874 C88.8916368,11.1686874 89,11.0586638 89,10.922968 L89,10.1128683 C89,9.97676506 88.8916368,9.86674147 88.7584819,9.86674147" id="Fill-33" fill="#4896E9"></path>
                <path d="M88.8512923,24.6840683 C86.9689584,23.7856212 85.6259518,22.3750329 84.8619048,21.4061885 L88.4137018,21.4061885 C88.5497594,21.4061885 88.6600763,21.2869528 88.6600763,21.1404382 L88.6600763,20.2657503 C88.6600763,20.1192356 88.5497594,20 88.4137018,20 L83.5585306,20 L83,20 L83,21.0665209 C83.0759961,21.201596 84.8594534,24.3263614 88.3401572,25.9776209 C88.467226,26.0378987 88.618401,25.9719011 88.6715166,25.8337462 L88.9816298,25.0254958 C89.0327024,24.8926207 88.9734581,24.7425862 88.8512923,24.6840683" id="Fill-34" fill="#4896E9"></path>
                <path d="M79,21.0665333 L79,20 L78.4415023,20 L73.6315583,20 C73.4955088,20 73.3847898,20.118797 73.3847898,20.2657533 L73.3847898,21.1404514 C73.3847898,21.2869678 73.4955088,21.4057648 73.6315583,21.4057648 L77.1382048,21.4057648 C76.3742029,22.3746205 75.0312753,23.7856652 73.1486437,24.6841227 C73.0268937,24.7422013 72.9672443,24.8922375 73.018314,25.0251142 L73.3284089,25.8333739 C73.3815213,25.9715305 73.5330961,26.0379688 73.6601574,25.9776903 C77.1406562,24.3264117 78.9244169,21.2016099 79,21.0665333" id="Fill-35" fill="#4896E9"></path>
                <path d="M51.5,31 C51.2239541,31 51,31.2247607 51,31.501801 L51,38.4986107 C51,38.7756509 51.2239541,39 51.5,39 C51.7760459,39 52,38.7756509 52,38.4986107 L52,31.501801 C52,31.2247607 51.7760459,31 51.5,31" id="Fill-36" fill="#4896E9"></path>
                <path d="M64,31.5017751 C64,31.2247492 63.7724684,31 63.4920128,31 L58.9693013,31 C58.4346437,31 58,31.4297402 58,31.9574479 L58,38.0425521 C58,38.5702598 58.4346437,39 58.9693013,39 L63.4920128,39 C63.7724684,39 64,38.7752508 64,38.4982249 C64,38.2211989 63.7724684,37.9964497 63.4920128,37.9964497 L59.0155577,37.9964497 L59.0155577,32.0035503 L63.4920128,32.0035503 C63.7724684,32.0035503 64,31.7788011 64,31.5017751" id="Fill-37" fill="#4896E9"></path>
                <path d="M80.449081,38.0108574 L76.1018379,38.0108574 L76.1018379,31.4947742 C76.1018379,31.2212075 75.8550768,31 75.550919,31 C75.2467611,31 75,31.2212075 75,31.4947742 L75,38.0559107 C75,38.5766616 75.4713769,39 76.0512202,39 L80.449081,39 C80.7532389,39 81,38.7787925 81,38.5056317 C81,38.2324708 80.7532389,38.0108574 80.449081,38.0108574" id="Fill-38" fill="#4896E9"></path>
                <path d="M85.4450442,31 L79.5549558,31 C79.2485692,31 79,31.2247607 79,31.501801 C79,31.7788412 79.2485692,32.0031903 79.5549558,32.0031903 L81.9450442,32.0031903 L81.9450442,38.4986107 C81.9450442,38.7756509 82.1931582,39 82.4995447,39 C82.8063866,39 83.0545005,38.7756509 83.0545005,38.4986107 L83.0545005,32.0031903 L85.4450442,32.0031903 C85.7514308,32.0031903 86,31.7788412 86,31.501801 C86,31.2247607 85.7514308,31 85.4450442,31" id="Fill-39" fill="#4896E9"></path>
                <path d="M61.4201999,34 C61.188211,34 61,34.224046 61,34.5002052 C61,34.7763644 61.188211,35 61.4201999,35 L63.5801448,35 C63.8121337,35 64,34.7763644 64,34.5002052 C64,34.224046 63.8121337,34 63.5801448,34 L61.4201999,34 Z" id="Fill-40" fill="#4896E9"></path>
                <path d="M117,31.5017751 C117,31.2247492 116.772468,31 116.492013,31 L111.969301,31 C111.43506,31 111,31.4297402 111,31.9574479 L111,38.0425521 C111,38.5702598 111.43506,39 111.969301,39 L116.492013,39 C116.772468,39 117,38.7752508 117,38.4982249 C117,38.2211989 116.772468,37.9964497 116.492013,37.9964497 L112.015558,37.9964497 L112.015558,32.0035503 L116.492013,32.0035503 C116.772468,32.0035503 117,31.7788011 117,31.5017751" id="Fill-41" fill="#4896E9"></path>
                <path d="M113.4202,34 C113.188211,34 113,34.224046 113,34.5002052 C113,34.7763644 113.188211,35 113.4202,35 L115.580145,35 C115.812134,35 116,34.7763644 116,34.5002052 C116,34.224046 115.812134,34 115.580145,34 L113.4202,34 Z" id="Fill-42" fill="#4896E9"></path>
                <path d="M124,31.5017751 C124,31.2247492 123.772468,31 123.492013,31 L118.969301,31 C118.434644,31 118,31.4297402 118,31.9574479 L118,38.0425521 C118,38.5702598 118.434644,39 118.969301,39 L123.492013,39 C123.772468,39 124,38.7752508 124,38.4982249 C124,38.2211989 123.772468,37.9964497 123.492013,37.9964497 L119.015558,37.9964497 L119.015558,32.0035503 L123.492013,32.0035503 C123.772468,32.0035503 124,31.7788011 124,31.5017751" id="Fill-43" fill="#4896E9"></path>
                <path d="M120.4202,34 C120.188211,34 120,34.224046 120,34.5002052 C120,34.7763644 120.188211,35 120.4202,35 L122.580145,35 C122.812134,35 123,34.7763644 123,34.5002052 C123,34.224046 122.812134,34 122.580145,34 L120.4202,34 Z" id="Fill-44" fill="#4896E9"></path>
                <path d="M55.560285,31 C55.3175219,31 55.1205699,31.2247607 55.1205699,31.501801 L55.1205699,34.4986107 L52.439715,34.4986107 C52.1969519,34.4986107 52,34.7229598 52,35 C52,35.2770402 52.1969519,35.501801 52.439715,35.501801 L55.1205699,35.501801 L55.1205699,38.4986107 C55.1205699,38.7756509 55.3175219,39 55.560285,39 C55.8030481,39 56,38.7756509 56,38.4986107 L56,31.501801 C56,31.2247607 55.8030481,31 55.560285,31" id="Fill-45" fill="#4896E9"></path>
                <path d="M87.5,31 C87.2239541,31 87,31.2247607 87,31.501801 L87,38.4986107 C87,38.7756509 87.2239541,39 87.5,39 C87.7760459,39 88,38.7756509 88,38.4986107 L88,31.501801 C88,31.2247607 87.7760459,31 87.5,31" id="Fill-46" fill="#4896E9"></path>
                <path d="M92.560285,31 C92.3175219,31 92.1205699,31.2247607 92.1205699,31.501801 L92.1205699,34.4986107 L89.439715,34.4986107 C89.1969519,34.4986107 89,34.7229598 89,35 C89,35.2770402 89.1969519,35.501801 89.439715,35.501801 L92.1205699,35.501801 L92.1205699,38.4986107 C92.1205699,38.7756509 92.3175219,39 92.560285,39 C92.8030481,39 93,38.7756509 93,38.4986107 L93,31.501801 C93,31.2247607 92.8030481,31 92.560285,31" id="Fill-47" fill="#4896E9"></path>
                <path d="M70.4822564,31.2857288 C70.3960755,31.1120187 70.2107868,31 70.0069691,31 L70.0065382,31 C69.8022896,31 69.6170008,31.1116128 69.53082,31.2853229 L66.0495453,38.2958247 C65.9267376,38.5434022 66.0400654,38.8376541 66.3029169,38.9533256 C66.374447,38.984983 66.4507171,39 66.5248326,39 C66.7226176,39 66.9117845,38.8944752 67.0005508,38.7146771 L70.0056764,32.6640455 L71.6793081,36.047334 L69.6338061,36.047334 C69.3438076,36.047334 69.1085339,36.2689361 69.1085339,36.5420831 C69.1085339,36.8152301 69.3438076,37.0364264 69.6338061,37.0364264 L72.1688152,37.0364264 L72.9987367,38.7142712 C73.1211134,38.9618487 73.433519,39.0681853 73.6968014,38.9537314 C73.959222,38.8384658 74.0734116,38.543808 73.9506039,38.2962305 L70.4822564,31.2857288 Z" id="Fill-48" fill="#4896E9"></path>
                <path d="M101.114684,31.2033196 L98.4951523,34.8279176 L95.8856648,31.2041313 C95.7265644,30.9833518 95.4196131,30.9342446 95.2014527,31.0949591 C94.9828906,31.2556735 94.9346783,31.5649271 95.0937787,31.7861124 L98.0045928,35.8283245 L98.0045928,38.5052754 C98.0045928,38.7784089 98.2239585,39 98.4943488,39 C98.7647391,39 98.9841048,38.7784089 98.9841048,38.5052754 L98.9841048,35.8291362 L101.905767,31.7869241 C102.065269,31.5661446 102.017458,31.2564852 101.798896,31.0953649 C101.579932,30.9338388 101.274186,30.9825401 101.114684,31.2033196" id="Fill-49" fill="#4896E9"></path>
                <path d="M105.651345,37.992663 L105.644155,37.992663 L105.247352,37.992663 L104.09559,37.992663 L104.09559,32.0271778 L104.09559,32.007337 L105.247352,32.007337 L105.644155,32.007337 L105.651345,32.007337 C107.445272,32.007337 108.90486,33.3499018 108.90486,35 C108.90486,36.6500982 107.445272,37.992663 105.651345,37.992663 M105.651345,31 L105.644155,31 L105.247352,31 L104.04481,31 C103.468704,31 103,31.4311253 103,31.961455 L103,32.0271778 L103,38.0339981 L103,38.038545 C103,38.5688747 103.468704,39 104.04481,39 L105.247352,39 L105.644155,39 L105.651345,39 C108.049239,39 110,37.2056422 110,35 C110,32.7943578 108.049239,31 105.651345,31" id="Fill-50" fill="#4896E9"></path>
                <path d="M130.988403,33.1987419 C130.871526,31.9659899 129.775247,31 128.492047,31 L125.946416,31 C125.424747,31 125,31.4267376 125,31.9508515 L125,38.5016621 C125,38.7770163 125.222351,39 125.49642,39 C125.77049,39 125.992434,38.7770163 125.992434,38.5016621 L125.992434,31.997494 L128.492047,31.997494 C129.269053,31.997494 129.931626,32.5666138 130.000449,33.2932542 C130.039543,33.7060809 129.909635,34.1004961 129.635158,34.4040812 C129.364346,34.7035749 128.977472,34.8754155 128.575123,34.8754155 L127.303326,34.8754155 C127.029256,34.8754155 126.806905,35.0983992 126.806905,35.3741625 C126.806905,35.6495167 127.029256,35.8725004 127.303326,35.8725004 L127.983002,35.8725004 L130.102258,38.7954278 C130.199587,38.929218 130.351079,39 130.504199,39 C130.605194,39 130.707817,38.968905 130.796188,38.9046694 C131.017317,38.742239 131.066185,38.430471 130.904919,38.2078965 L129.157878,35.7980361 C129.619683,35.6826574 130.04443,35.4347159 130.369404,35.0746688 C130.827952,34.5685573 131.053561,33.8844679 130.988403,33.1987419" id="Fill-51" fill="#4896E9"></path>
                <path d="M43.4158523,0.0496334283 C43.318535,0.1057541 43.268294,0.217995443 43.2734368,0.329844334 L43.2746236,0.348682042 C43.3145791,1.16262801 43.2493053,2.01974372 43.1100545,2.83565194 C42.9660566,3.65548469 42.7449169,4.45883444 42.4157788,5.20527862 C41.7709529,6.70326886 40.5422233,7.92497271 39.1382435,8.63413392 C39.1133208,8.64669239 39.0880025,8.66003577 39.0630798,8.67298669 C39.2118249,8.31310798 39.3332737,7.94498777 39.4290086,7.57451285 C39.6287859,6.79941966 39.721356,6.01137554 39.7336196,5.22961066 C39.7435096,4.4427439 39.6723018,3.6570545 39.5152491,2.86704812 C39.476876,2.67670878 39.2972742,2.54366747 39.1010573,2.56799951 C38.8953459,2.59350891 38.74937,2.78070863 38.7746883,2.98674606 L38.7770619,3.00793848 C38.9728833,5.08479578 38.580845,6.57375961 38.3557493,7.23818127 C38.1306537,7.90221048 37.8193175,8.52699446 37.4098728,9.06583139 C37.0732183,9.52264581 36.6720812,9.91117354 36.2226811,10.2384787 C35.5311746,10.6442743 34.9524137,11.0045455 34.6300007,11.2309905 C34.5726389,11.2718055 34.5168595,11.3145828 34.4594977,11.3553978 C34.4610801,11.3522582 34.4626625,11.3487261 34.4642449,11.3455865 C35.472626,9.2589179 35.635217,7.16008327 35.2293328,5.23824461 C35.1961025,5.08047881 35.039841,4.9662752 34.8772499,4.96392049 C34.743142,4.96235068 34.6244623,5.02592794 34.5544414,5.1322825 C34.4998488,5.21548238 34.48086,5.3147728 34.5014312,5.41131605 L34.5061783,5.43486319 C34.7027909,6.85828749 34.2882034,8.43555308 34.0263171,9.03796728 C33.0895394,11.1952773 32.2049807,12.4103095 31.6076266,13.1445876 C31.5811215,13.1477272 31.5561988,13.1500819 31.5292981,13.1540065 C29.1980349,13.4695381 27.0618019,14.5362233 24.9912383,17.2724004 C24.2360404,18.270014 22.4815602,19.9410757 19.9477505,21.3240774 C19.0995868,21.787171 19.3060894,22.6364377 19.4655156,23.0449805 C20.1843185,24.8836193 21.6496161,25.3066828 23.6200932,25.4495354 C24.6834625,25.5268485 26.0886291,25.3000111 26.9672539,25.259981 C28.0994573,25.2085697 29.2514408,26.0794213 29.065905,28.0640523 C28.7866123,31.0478668 29.0856849,35.4951356 30.4263689,38.7944817 C26.2144295,41.1566518 20.9482196,41.7739792 15.7203827,39.8639141 C13.9306942,39.2100886 12.2948936,38.2560372 10.8671778,37.0672994 C9.64042626,31.8084392 12.8000731,28.6645043 15.2792902,27.1406122 C16.7346978,26.245821 18.5402103,25.0084191 18.2609176,23.4574478 C18.198413,23.1109125 18.0540195,22.4971172 16.6686328,22.3197287 C15.4347605,22.1615705 14.5288394,21.8668388 12.8969948,21.1659191 C11.7762637,20.6847727 10.8822106,20.4288938 10.094178,20.2597469 C7.8293754,19.7774231 6.32689153,20.8189913 5.11675509,21.6584467 C5.0827336,21.6863108 5.05187691,21.7110353 5.01943781,21.7377221 C5.29081852,19.7315062 5.91586447,17.8351769 6.83088427,16.1123115 C6.91791599,15.9482665 6.79528039,15.7512555 6.6085578,15.7512555 L4.90669218,15.7512555 C4.8097705,15.7512555 4.72115639,15.8065912 4.67961853,15.8933232 C3.6506663,18.0451388 3.01770838,20.4182976 2.87489724,22.9190033 C2.41244236,23.0022032 1.71777104,23.0587163 0.999759391,23.0685276 C0.574095187,23.074022 0.153178167,23.3016443 0.0459709186,23.6725116 C-0.0766646794,24.0983223 0.040036938,24.7286006 0.468865932,25.2085697 C1.25294256,26.0857005 2.22057699,26.4738358 3.02047757,26.5801904 C4.290745,35.8404936 12.3130911,43 21.9902266,43 C30.2333167,43 37.5305304,37.7941209 40.148207,30.0455437 L40.1450422,30.0447588 C40.3428416,29.4768804 40.5105754,28.8980133 40.6419142,28.3097274 C40.951668,26.9188766 40.8136041,25.9302894 39.789399,24.676012 C37.5867054,21.9794726 37.524992,18.6997492 37.8798441,17.3595248 C38.4538578,17.0875554 39.0029488,16.6279938 39.422679,16.0887644 C40.20636,15.0821244 40.2831062,14.1681031 40.2767766,13.7811452 C40.2637219,13.0299916 39.8000802,12.5103848 39.378372,12.4158038 C38.7960507,12.2855096 38.5931085,12.8310183 36.5949395,13.0374482 C36.1827256,13.0896443 35.7910829,13.091999 35.3816383,13.0778707 C37.711319,10.996304 40.635189,9.78087939 42.096135,8.01366692 C42.3944165,7.65221839 42.6333581,7.24838503 42.8446078,6.83787998 C43.0610003,6.43012209 43.2413933,6.00705857 43.3881604,5.57653845 C43.689211,4.71706802 43.8589229,3.82934104 43.9443722,2.94318386 C43.9859101,2.49971282 44.003712,2.05584932 43.9993604,1.61277074 C43.993822,1.16616008 43.9724597,0.73407015 43.9107463,0.275293471 C43.881472,0.063369257 43.6421348,-0.0806607184 43.4158523,0.0496334283" id="Fill-52" fill="#4896E9"></path>
                <path d="M13.3783462,8.97025943 C15.8197733,7.7181883 18.5998485,7.0081053 21.5484377,7.0081053 C24.348362,7.0081053 27.0624089,7.64827969 29.5159884,8.86696749 C30.0138337,9.11400411 30.6242917,8.91920258 30.8819236,8.43769718 C31.1500877,7.93655453 30.9459265,7.31837387 30.427017,7.06191137 C27.6910956,5.70969026 24.6667561,5 21.5484377,5 C18.5431371,5 15.6941979,5.65941889 13.1458294,6.83647573 C13.0567114,6.87771395 13,6.96568884 13,7.06151862 L13,8.75228595 C13,8.94080356 13.2065916,9.05823432 13.3783462,8.97025943" id="Fill-53" fill="#4896E9"></path>
                <path d="M8.25355411,15 L9.74644589,15 C9.88660311,15 10,14.8705748 10,14.7114579 L10,12.2885421 C10,12.1290445 9.88660311,12 9.74644589,12 L8.25355411,12 C8.11339689,12 8,12.1290445 8,12.2885421 L8,14.7114579 C8,14.8705748 8.11339689,15 8.25355411,15" id="Fill-54" fill="#4896E9"></path>
                <path d="M8.25355411,10 L9.74644589,10 C9.88660311,10 10,9.87095546 10,9.71145794 L10,7.28854206 C10,7.1294252 9.88660311,7 9.74644589,7 L8.25355411,7 C8.11339689,7 8,7.1294252 8,7.28854206 L8,9.71145794 C8,9.87095546 8.11339689,10 8.25355411,10" id="Fill-55" fill="#4896E9"></path>
                <path d="M5.28854206,12 L7.71145794,12 C7.8705748,12 8,11.8866031 8,11.7464459 L8,10.2535541 C8,10.1133969 7.8705748,10 7.71145794,10 L5.28854206,10 C5.12904454,10 5,10.1133969 5,10.2535541 L5,11.7464459 C5,11.8866031 5.12904454,12 5.28854206,12" id="Fill-56" fill="#4896E9"></path>
                <path d="M11.2885421,12 L13.7114579,12 C13.8705748,12 14,11.8866031 14,11.7464459 L14,10.2535541 C14,10.1133969 13.8705748,10 13.7114579,10 L11.2885421,10 C11.1290445,10 11,10.1133969 11,10.2535541 L11,11.7464459 C11,11.8866031 11.1290445,12 11.2885421,12" id="Fill-57" fill="#4896E9"></path>
            </g>
        </g>
    </g>
</svg>